<svg width="18" height="18" viewBox="0 0 18 18" fill="none" xmlns="http://www.w3.org/2000/svg">
<path d="M8.77172 0.75C8.93786 0.750007 9.09837 0.810172 9.22357 0.91937C9.34878 1.02857 9.43021 1.17941 9.4528 1.344L9.45922 1.4375L9.46014 8.08333H16.1087C16.2829 8.08339 16.4506 8.14956 16.5779 8.26848C16.7051 8.38739 16.7825 8.55019 16.7944 8.72397C16.8063 8.89776 16.7518 9.06957 16.6418 9.20469C16.5319 9.33982 16.3748 9.42818 16.2022 9.45192L16.1087 9.45833H9.46014L9.46197 16.1042C9.46169 16.2783 9.39535 16.4458 9.27636 16.5729C9.15737 16.7 8.99459 16.7772 8.82087 16.789C8.64716 16.8007 8.47546 16.7461 8.34043 16.6362C8.20541 16.5263 8.11712 16.3692 8.09339 16.1968L8.08697 16.1033L8.08514 9.45833H1.44022C1.26603 9.45828 1.09836 9.39211 0.971078 9.27319C0.843798 9.15428 0.766402 8.99148 0.75453 8.81769C0.742657 8.64391 0.797193 8.4721 0.907117 8.33698C1.01704 8.20185 1.17416 8.11349 1.34672 8.08975L1.44022 8.08333H8.08605L8.08422 1.4375C8.08422 1.25516 8.15665 1.0803 8.28559 0.951364C8.41452 0.822433 8.58938 0.75 8.77172 0.75Z" fill="url(#paint0_linear_14041_49841)" stroke="url(#paint1_linear_14041_49841)"/>
<defs>
<linearGradient id="paint0_linear_14041_49841" x1="0.75293" y1="0.75" x2="16.796" y2="0.75" gradientUnits="userSpaceOnUse">
<stop stop-color="#DA071A"/>
<stop offset="1" stop-color="#8C000D"/>
</linearGradient>
<linearGradient id="paint1_linear_14041_49841" x1="0.75293" y1="0.75" x2="16.796" y2="0.75" gradientUnits="userSpaceOnUse">
<stop stop-color="#DA071A"/>
<stop offset="1" stop-color="#8C000D"/>
</linearGradient>
</defs>
</svg>
