<svg width="22" height="22" viewBox="0 0 22 22" fill="none" xmlns="http://www.w3.org/2000/svg">
<mask id="mask0_14041_54196" style="mask-type:alpha" maskUnits="userSpaceOnUse" x="0" y="0" width="22" height="22">
<rect width="22" height="22" fill="#C4C4C4"/>
</mask>
<g mask="url(#mask0_14041_54196)">
<path d="M6.18347 19.2838C6.20416 19.778 6.61079 20.168 7.10529 20.168H15.7186C16.2131 20.168 16.6198 19.778 16.6404 19.2838L17.2556 6.29883H5.56836L6.18347 19.2838ZM13.3604 9.52408C13.3604 9.31717 13.5282 9.14936 13.7352 9.14936H14.3346C14.5414 9.14936 14.7093 9.31713 14.7093 9.52408V16.9427C14.7093 17.1497 14.5415 17.3174 14.3346 17.3174H13.7352C13.5282 17.3174 13.3604 17.1498 13.3604 16.9427V9.52408ZM10.7375 9.52408C10.7375 9.31717 10.9053 9.14936 11.1123 9.14936H11.7117C11.9185 9.14936 12.0864 9.31713 12.0864 9.52408V16.9427C12.0864 17.1497 11.9186 17.3174 11.7117 17.3174H11.1123C10.9054 17.3174 10.7375 17.1498 10.7375 16.9427V9.52408ZM8.1146 9.52408C8.1146 9.31717 8.28237 9.14936 8.48932 9.14936H9.08876C9.29566 9.14936 9.46348 9.31713 9.46348 9.52408V16.9427C9.46348 17.1497 9.29571 17.3174 9.08876 17.3174H8.48932C8.28241 17.3174 8.1146 17.1498 8.1146 16.9427V9.52408Z" fill="url(#paint0_linear_14041_54196)"/>
<path d="M17.6688 2.77843H13.6952V2.0272C13.6952 1.92052 13.6087 1.83398 13.502 1.83398H9.3293C9.22262 1.83398 9.13613 1.92052 9.13613 2.0272V2.77839H5.16247C4.84269 2.77839 4.5835 3.03763 4.5835 3.35741V5.17634H18.2478V3.35745C18.2478 3.03767 17.9886 2.77843 17.6688 2.77843Z" fill="url(#paint1_linear_14041_54196)"/>
</g>
<defs>
<linearGradient id="paint0_linear_14041_54196" x1="5.56836" y1="6.29883" x2="17.2556" y2="6.29883" gradientUnits="userSpaceOnUse">
<stop stop-color="#DA071A"/>
<stop offset="1" stop-color="#8C000D"/>
</linearGradient>
<linearGradient id="paint1_linear_14041_54196" x1="4.5835" y1="1.83398" x2="18.2478" y2="1.83398" gradientUnits="userSpaceOnUse">
<stop stop-color="#DA071A"/>
<stop offset="1" stop-color="#8C000D"/>
</linearGradient>
</defs>
</svg>
