<svg width="75" height="76" viewBox="0 0 75 76" fill="none" xmlns="http://www.w3.org/2000/svg">
<g clip-path="url(#clip0_14076_26730)">
<path d="M37.502 75.502C58.2126 75.502 75.002 58.7126 75.002 38.002C75.002 17.2913 58.2126 0.501953 37.502 0.501953C16.7913 0.501953 0.00195312 17.2913 0.00195312 38.002C0.00195312 58.7126 16.7913 75.502 37.502 75.502Z" fill="#BC2228"/>
<path fill-rule="evenodd" clip-rule="evenodd" d="M23.5983 24.0983C25.0628 22.6339 27.4372 22.6339 28.9017 24.0983L37.5 33.3125L46.0984 24.0983C47.5628 22.6339 49.9372 22.6339 51.4017 24.0983C52.8661 25.5628 52.8661 27.9372 51.4017 29.4017L42.1875 38L51.4017 46.5984C52.8661 48.0628 52.8661 50.4372 51.4017 51.9017C49.9372 53.3661 47.5628 53.3661 46.0984 51.9017L37.5 42.6875L28.9017 51.9017C27.4372 53.3661 25.0628 53.3661 23.5983 51.9017C22.1339 50.4372 22.1339 48.0628 23.5983 46.5984L32.8125 38L23.5983 29.4017C22.1339 27.9372 22.1339 25.5628 23.5983 24.0983Z" fill="white"/>
</g>
<defs>
<clipPath id="clip0_14076_26730">
<rect width="75" height="75" fill="white" transform="translate(0 0.5)"/>
</clipPath>
</defs>
</svg>
