<svg width="24" height="24" viewBox="0 0 24 24" fill="none" xmlns="http://www.w3.org/2000/svg">
<path d="M11.449 14.49L7.93577 10.4743C7.52116 10.0018 7.85812 9.25977 8.48736 9.25977H15.5137C15.6546 9.25965 15.7924 9.30012 15.9108 9.37634C16.0293 9.45256 16.1232 9.5613 16.1814 9.68953C16.2396 9.81777 16.2596 9.96006 16.239 10.0994C16.2184 10.2387 16.1581 10.3691 16.0653 10.475L12.5521 14.4893C12.4834 14.5679 12.3986 14.631 12.3035 14.6742C12.2083 14.7174 12.105 14.7398 12.0005 14.7398C11.8961 14.7398 11.7928 14.7174 11.6976 14.6742C11.6025 14.631 11.5177 14.5679 11.449 14.4893V14.49Z" fill="#5F63F2"/>
</svg>
