<svg width="88" height="78" viewBox="0 0 88 78" fill="none" xmlns="http://www.w3.org/2000/svg">
<path d="M87.1729 72.6397L46.6953 1.60969C46.092 0.55411 45.0509 0.03125 44 0.03125C42.9491 0.03125 41.8983 0.55411 41.3047 1.60969L0.827114 72.6397C-0.3697 74.7508 1.12875 77.375 3.52238 77.375H84.4776C86.8712 77.375 88.3697 74.7508 87.1729 72.6397ZM40.8863 29.2325C40.8863 28.7984 41.2366 28.4432 41.6648 28.4432H46.3352C46.7634 28.4432 47.1137 28.7984 47.1137 29.2325V47.3846C47.1137 47.8186 46.7634 48.1738 46.3352 48.1738H41.6648C41.2366 48.1738 40.8863 47.8186 40.8863 47.3846V29.2325ZM44 63.9582C42.7778 63.9329 41.6141 63.4229 40.7586 62.5376C39.903 61.6523 39.4239 60.4623 39.4239 59.2229C39.4239 57.9835 39.903 56.7935 40.7586 55.9082C41.6141 55.0229 42.7778 54.5129 44 54.4876C45.2222 54.5129 46.3859 55.0229 47.2414 55.9082C48.097 56.7935 48.5761 57.9835 48.5761 59.2229C48.5761 60.4623 48.097 61.6523 47.2414 62.5376C46.3859 63.4229 45.2222 63.9329 44 63.9582V63.9582Z" fill="#FAAD14"/>
</svg>
